<svg width="22" height="23" viewBox="0 0 22 23" fill="none" xmlns="http://www.w3.org/2000/svg">
<path d="M16.1776 11.0234H11.587V6.43283C11.587 6.16782 11.3724 5.95312 11.1073 5.95312C10.8425 5.95312 10.6276 6.16782 10.6276 6.43283V11.0234H5.80198C5.53696 11.0234 5.32227 11.2382 5.32227 11.5031C5.32227 11.7681 5.53696 11.9828 5.80198 11.9828H10.6324V16.8132C10.6324 17.0781 10.8473 17.2929 11.112 17.2929C11.377 17.2929 11.5917 17.0781 11.5917 16.8132V11.9828H16.1825C16.4472 11.9814 16.661 11.7655 16.6597 11.5007C16.6585 11.2359 16.4426 11.0222 16.1776 11.0234Z" fill="black"/>
<path d="M11.0049 1.18948C6.83357 1.18873 3.07267 3.70131 1.47639 7.55522C-0.119591 11.4093 0.763208 15.8452 3.71373 18.7939C7.74071 22.8209 14.2695 22.8209 18.2963 18.7939C22.3231 14.7672 22.3231 8.2385 18.2963 4.21152C16.3668 2.27105 13.7414 1.18287 11.0049 1.18948ZM11.0049 20.8567C5.84831 20.8567 1.65111 16.6593 1.65111 11.5027C1.65111 6.3461 5.84831 2.1489 11.0049 2.1489C16.1616 2.1489 20.3589 6.3461 20.3589 11.5027C20.3589 16.6593 16.1616 20.8567 11.0049 20.8567Z" fill="black"/>
</svg>
