<svg width="13" height="13" viewBox="0 0 13 13" fill="none" xmlns="http://www.w3.org/2000/svg">
<path d="M2.625 7.65511C1.62218 8.0975 1 8.71397 1 9.39583C1 10.742 3.42512 11.8333 6.41667 11.8333C9.40821 11.8333 11.8333 10.742 11.8333 9.39583C11.8333 8.71397 11.2112 8.0975 10.2083 7.65511M9.66667 4.25C9.66667 6.45118 7.22917 7.5 6.41667 9.125C5.60417 7.5 3.16667 6.45118 3.16667 4.25C3.16667 2.45507 4.62174 1 6.41667 1C8.21159 1 9.66667 2.45507 9.66667 4.25ZM6.95833 4.25C6.95833 4.54915 6.71582 4.79167 6.41667 4.79167C6.11751 4.79167 5.875 4.54915 5.875 4.25C5.875 3.95085 6.11751 3.70833 6.41667 3.70833C6.71582 3.70833 6.95833 3.95085 6.95833 4.25Z" stroke="black" stroke-linecap="round" stroke-linejoin="round"/>
</svg>
