<svg width="12" height="11" viewBox="0 0 12 11" fill="none" xmlns="http://www.w3.org/2000/svg">
<path d="M2.71698 0.0419922C2.51245 0.0419922 2.34972 0.196909 2.34972 0.386768V2.64655C2.34972 2.83641 2.51245 2.98758 2.71698 2.98758H2.9156C3.12013 2.98758 3.28661 2.83641 3.28661 2.64655V0.386768C3.28661 0.196909 3.12013 0.0419922 2.9156 0.0419922H2.71698ZM8.72807 0.0419922C8.52355 0.0419922 8.35706 0.196909 8.35706 0.386768V2.64655C8.35706 2.83641 8.52355 2.98758 8.72807 2.98758H8.92294C9.12747 2.98758 9.29395 2.83641 9.29395 2.64655V0.386768C9.29395 0.196909 9.12747 0.0419922 8.92294 0.0419922H8.72807ZM1.19547 1.69092C0.533962 1.69092 0 2.21362 0 2.86391V9.75942C0 10.4097 0.533962 10.9362 1.19547 10.9362H10.4482C11.1097 10.9362 11.6437 10.4097 11.6437 9.75942V2.86391C11.6437 2.21362 11.1097 1.69092 10.4482 1.69092H9.54129V2.83767C9.54129 3.12812 9.2883 3.36233 8.97541 3.36233H8.6756C8.36271 3.36233 8.10972 3.12812 8.10972 2.83767V1.69092H3.53395V2.83767C3.53395 3.12812 3.28096 3.36233 2.96807 3.36233H2.66452C2.35163 3.36233 2.10238 3.12812 2.10238 2.83767V1.69092H1.19547ZM0.749512 4.96254H10.8904V9.30971C10.8904 9.74744 10.5412 10.0967 10.1034 10.0967H1.54025C1.10252 10.0967 0.749512 9.74744 0.749512 9.30971V4.96254Z" fill="black"/>
</svg>
