<svg width="24" height="25" viewBox="0 0 24 25" fill="none" xmlns="http://www.w3.org/2000/svg">
<path d="M8.12602 14.5C8.57006 16.2252 10.1362 17.5 12 17.5C13.8638 17.5 15.4299 16.2252 15.874 14.5M11.0177 3.264L4.23539 8.53912C3.78202 8.89175 3.55534 9.06806 3.39203 9.28886C3.24737 9.48444 3.1396 9.70478 3.07403 9.93905C3 10.2035 3 10.4907 3 11.0651V18.3C3 19.4201 3 19.9801 3.21799 20.408C3.40973 20.7843 3.71569 21.0903 4.09202 21.282C4.51984 21.5 5.07989 21.5 6.2 21.5H17.8C18.9201 21.5 19.4802 21.5 19.908 21.282C20.2843 21.0903 20.5903 20.7843 20.782 20.408C21 19.9801 21 19.4201 21 18.3V11.0651C21 10.4907 21 10.2035 20.926 9.93905C20.8604 9.70478 20.7526 9.48444 20.608 9.28886C20.4447 9.06806 20.218 8.89175 19.7646 8.53913L12.9823 3.264C12.631 2.99075 12.4553 2.85412 12.2613 2.8016C12.0902 2.75526 11.9098 2.75526 11.7387 2.8016C11.5447 2.85412 11.369 2.99075 11.0177 3.264Z" stroke="#B3B3B3" stroke-width="1.5" stroke-linecap="round" stroke-linejoin="round"/>
</svg>
