<svg width="13" height="17" viewBox="0 0 13 17" fill="none" xmlns="http://www.w3.org/2000/svg">
<path d="M6.56175 0C3.00896 0 0 2.96819 0 6.48358C0 10.1653 3.48779 13.9303 5.83375 16.5766C5.84296 16.5872 6.22213 17 6.68904 17H6.73021C7.19767 17 7.57413 16.5872 7.58333 16.5766C9.78467 14.0945 13 10.0011 13 6.48358C13 2.96765 10.653 0 6.56175 0ZM6.77896 15.8636C6.76 15.8822 6.73238 15.9029 6.708 15.9205C6.68308 15.9035 6.656 15.8822 6.63596 15.8636L6.35267 15.5438C4.12858 13.0415 1.08279 9.61433 1.08279 6.48305C1.08279 3.54408 3.59179 1.06147 6.56121 1.06147C10.2603 1.06147 11.9161 3.78421 11.9161 6.48305C11.9161 8.85993 10.1877 12.0167 6.77896 15.8636ZM6.51896 3.21682C4.72442 3.21682 3.26896 4.6438 3.26896 6.40442C3.26896 8.16504 4.72442 9.59202 6.51896 9.59202C8.3135 9.59202 9.76896 8.1645 9.76896 6.40442C9.76896 4.64433 8.31404 3.21682 6.51896 3.21682ZM6.51896 8.52948C5.32404 8.52948 4.32738 7.55302 4.32738 6.38104C4.32738 5.20907 5.29913 4.25598 6.49404 4.25598C7.6895 4.25598 8.66071 5.20907 8.66071 6.38104C8.66125 7.55302 7.71442 8.52948 6.51896 8.52948Z" fill="white"/>
</svg>
