<svg width="20" height="20" viewBox="0 0 20 20" fill="none" xmlns="http://www.w3.org/2000/svg">
<path d="M17.0581 7.68879C17.733 8.07746 18.2803 8.65413 18.6332 9.34848C18.986 10.0428 19.1292 10.8249 19.0452 11.5992C18.9613 12.3735 18.6538 13.1067 18.1603 13.7092C17.6669 14.3118 17.0087 14.7578 16.2661 14.9928C16.0037 16.1838 15.3424 17.2494 14.3917 18.0133C13.441 18.7772 12.2579 19.1935 11.0383 19.1932H9.03172C8.85433 19.1932 8.6842 19.1228 8.55876 18.9973C8.43333 18.8719 8.36286 18.7018 8.36286 18.5244C8.36286 18.347 8.43333 18.1769 8.55876 18.0514C8.6842 17.926 8.85433 17.8555 9.03172 17.8555H11.0383C11.8685 17.8557 12.6784 17.5986 13.3564 17.1194C14.0344 16.6403 14.5472 15.9627 14.8241 15.1801H14.3826C14.2052 15.1801 14.0351 15.1096 13.9097 14.9842C13.7842 14.8587 13.7138 14.6886 13.7138 14.5112V7.82256C13.7138 7.64517 13.7842 7.47504 13.9097 7.34961C14.0351 7.22417 14.2052 7.1537 14.3826 7.1537H15.0515C15.2682 7.1537 15.4809 7.17109 15.6896 7.20454C15.539 5.72085 14.843 4.34588 13.7366 3.34603C12.6301 2.34617 11.1919 1.79262 9.70058 1.79262C8.20928 1.79262 6.77106 2.34617 5.66459 3.34603C4.55812 4.34588 3.86217 5.72085 3.71158 7.20454C3.9226 7.17074 4.13597 7.15374 4.34968 7.1537H5.01854C5.19594 7.1537 5.36606 7.22417 5.4915 7.34961C5.61694 7.47504 5.6874 7.64517 5.6874 7.82256V14.5112C5.6874 14.6886 5.61694 14.8587 5.4915 14.9842C5.36606 15.1096 5.19594 15.1801 5.01854 15.1801H4.34968C3.46542 15.181 2.60559 14.8899 1.90378 14.352C1.20197 13.8141 0.69748 13.0594 0.468689 12.2052C0.239899 11.3511 0.299619 10.4453 0.638571 9.62856C0.977524 8.81184 1.57673 8.12994 2.34309 7.68879C2.34309 5.73746 3.11825 3.86606 4.49805 2.48626C5.87785 1.10646 7.74925 0.331299 9.70058 0.331299C11.6519 0.331299 13.5233 1.10646 14.9031 2.48626C16.2829 3.86606 17.0581 5.73746 17.0581 7.68879ZM4.34968 8.49143C3.64011 8.49143 2.95959 8.7733 2.45785 9.27505C1.9561 9.77679 1.67423 10.4573 1.67423 11.1669C1.67423 11.8765 1.9561 12.557 2.45785 13.0587C2.95959 13.5605 3.64011 13.8423 4.34968 13.8423V8.49143ZM17.7269 11.1669C17.7269 10.4573 17.4451 9.77679 16.9433 9.27505C16.4416 8.7733 15.7611 8.49143 15.0515 8.49143V13.8423C15.7611 13.8423 16.4416 13.5605 16.9433 13.0587C17.4451 12.557 17.7269 11.8765 17.7269 11.1669Z" fill="#3E0C0C"/>
</svg>
