<svg width="22" height="15" viewBox="0 0 22 15" fill="none" xmlns="http://www.w3.org/2000/svg">
<path d="M3.0489 13.4397H1.33203V12.5854C1.33203 10.993 2.42634 9.65506 3.90733 9.27564M5.6242 6.45912C4.62396 6.1073 3.90733 5.15787 3.90733 4.04191C3.90733 2.92596 4.62396 1.97657 5.6242 1.62472M18.5007 13.4397H20.2176V12.5854C20.2176 10.993 19.1232 9.65506 17.6423 9.27564M15.9254 1.62472C16.9257 1.97657 17.6423 2.92596 17.6423 4.04191C17.6423 5.15787 16.9257 6.1073 15.9254 6.45912M9.05793 9.16799H12.4917C14.388 9.16799 15.9254 10.698 15.9254 12.5854V13.4397H5.6242V12.5854C5.6242 10.698 7.16153 9.16799 9.05793 9.16799ZM13.3501 4.04192C13.3501 5.45744 12.1971 6.60496 10.7748 6.60496C9.35246 6.60496 8.1995 5.45744 8.1995 4.04192C8.1995 2.6264 9.35246 1.47888 10.7748 1.47888C12.1971 1.47888 13.3501 2.6264 13.3501 4.04192Z" fill="#D9D9D9"/>
<path d="M3.0489 13.4397H1.33203V12.5854C1.33203 10.993 2.42634 9.65506 3.90733 9.27564M5.6242 6.45912C4.62396 6.1073 3.90733 5.15787 3.90733 4.04191C3.90733 2.92596 4.62396 1.97657 5.6242 1.62472M18.5007 13.4397H20.2176V12.5854C20.2176 10.993 19.1232 9.65506 17.6423 9.27564M15.9254 1.62472C16.9257 1.97657 17.6423 2.92596 17.6423 4.04191C17.6423 5.15787 16.9257 6.1073 15.9254 6.45912M9.05793 9.168H12.4917C14.388 9.168 15.9254 10.698 15.9254 12.5854V13.4397H5.6242V12.5854C5.6242 10.698 7.16153 9.168 9.05793 9.168ZM13.3501 4.04192C13.3501 5.45744 12.1971 6.60496 10.7748 6.60496C9.35246 6.60496 8.1995 5.45744 8.1995 4.04192C8.1995 2.6264 9.35246 1.47888 10.7748 1.47888C12.1971 1.47888 13.3501 2.6264 13.3501 4.04192Z" stroke="#515151" stroke-width="2" stroke-linecap="round" stroke-linejoin="round"/>
</svg>
