<svg width="12" height="12" viewBox="0 0 12 12" fill="none" xmlns="http://www.w3.org/2000/svg">
<path fill-rule="evenodd" clip-rule="evenodd" d="M6.92245 6.21679L8.46259 7.10599C8.61294 7.19279 8.66157 7.39002 8.57692 7.53664C8.48972 7.68768 8.30152 7.74227 8.14681 7.65295L6.58057 6.74869C6.42021 6.87322 6.21876 6.94737 6 6.94737C5.47678 6.94737 5.05263 6.52322 5.05263 6C5.05263 5.58751 5.31626 5.2366 5.68421 5.10654V2.21268C5.68421 2.03709 5.8307 1.89474 6 1.89474C6.17441 1.89474 6.31579 2.04183 6.31579 2.21268V5.10654C6.68374 5.2366 6.94737 5.58751 6.94737 6C6.94737 6.07459 6.93874 6.14717 6.92245 6.21679ZM6 12C9.31371 12 12 9.31371 12 6C12 2.68629 9.31371 0 6 0C2.68629 0 0 2.68629 0 6C0 9.31371 2.68629 12 6 12ZM6 11.3684C8.9649 11.3684 11.3684 8.9649 11.3684 6C11.3684 3.0351 8.9649 0.631579 6 0.631579C3.0351 0.631579 0.631579 3.0351 0.631579 6C0.631579 8.9649 3.0351 11.3684 6 11.3684Z" fill="black"/>
</svg>
