<svg width="22" height="20" viewBox="0 0 22 20" fill="none" xmlns="http://www.w3.org/2000/svg">
<path d="M21.4074 10.1053C21.3654 9.79919 21.1835 9.54086 20.9201 9.37485C20.7456 9.26471 20.5291 9.2639 20.3463 9.34084C20.3439 8.68003 20.3463 8.01923 20.329 7.35923C20.3118 6.61825 20.3529 5.87809 20.3809 5.13873C20.3908 4.89498 20.2319 4.68443 20.0187 4.58077C19.9998 4.3022 19.98 4.02362 19.9553 3.74586C19.9397 3.57985 19.9257 3.41384 19.9018 3.24944C19.8969 3.21705 19.8928 3.18466 19.8878 3.15227C19.8755 3.06643 19.836 2.91823 19.7866 2.85264C19.7149 2.76032 19.654 2.65747 19.5429 2.60484C19.4614 2.56677 19.3832 2.52952 19.2943 2.51738C19.2079 2.50442 19.119 2.50442 19.0317 2.4947C19.0128 2.2218 18.998 1.94889 18.9856 1.67598C19.0169 1.60553 19.0342 1.52941 19.0342 1.45005C19.0342 1.13017 18.7633 0.868603 18.4415 0.865364C17.7788 0.860505 17.1162 0.870223 16.4535 0.842689C15.8575 0.818395 15.2624 0.784383 14.6639 0.772236C13.4069 0.749561 12.1474 0.758469 10.8888 0.749561C9.65403 0.741463 8.4209 0.717169 7.18366 0.713929C6.58027 0.713119 5.97688 0.701782 5.37431 0.701782C4.79314 0.701782 4.21116 0.71231 3.63081 0.75199C2.99038 0.79653 2.34171 0.940676 1.75231 1.19334C1.17691 1.4379 0.659953 1.92541 0.481322 2.52628C0.432755 2.69068 0.408059 2.85831 0.385833 3.02918C0.3669 3.16765 0.350437 3.30937 0.3669 3.44866C0.38748 3.62277 0.416291 3.79121 0.463212 3.95803C0.269765 4.0544 0.13394 4.24875 0.13147 4.47307C0.123239 5.1193 0.126531 5.76471 0.114184 6.40932C0.103482 6.99563 0.0894881 7.58112 0.0829027 8.1658C0.0722013 9.34974 0.0656159 10.5321 0.0829027 11.7168C0.0952504 12.5396 0.114184 13.3624 0.117476 14.1851C0.122415 15.0111 0.133117 15.8379 0.114184 16.6656C0.111714 16.7684 0.148757 16.8607 0.199794 16.945C0.324095 17.2608 0.454157 17.5782 0.622909 17.873C0.692057 17.9928 0.779314 18.1038 0.863278 18.2147C0.94148 18.316 1.02133 18.4164 1.10118 18.516C1.22301 18.6682 1.40575 18.7881 1.56874 18.8909C1.93259 19.125 2.35653 19.274 2.78376 19.3477C3.15419 19.4108 3.52792 19.4724 3.90329 19.495C4.58488 19.5347 5.26977 19.5396 5.95383 19.5517C6.60414 19.5623 7.25446 19.5744 7.90312 19.5736C8.56578 19.5736 9.2268 19.5663 9.88864 19.5704C10.5529 19.5768 11.2156 19.5963 11.8799 19.5825C12.5648 19.5704 13.248 19.5428 13.9321 19.5331C14.5898 19.5226 15.2517 19.5258 15.9094 19.5258C16.5375 19.5258 17.1664 19.5258 17.7928 19.5177C18.0867 19.5145 18.3806 19.5177 18.6761 19.521C18.9856 19.5242 19.2951 19.5274 19.6063 19.5226C19.8178 19.5201 20.0022 19.4165 20.1274 19.2642C20.2862 19.1525 20.399 18.98 20.3949 18.7784C20.3809 18.0819 20.3883 17.3855 20.3809 16.6882C20.3702 15.8881 20.3825 15.0897 20.3965 14.2904C20.5916 14.2612 20.7661 14.2054 20.9283 14.0717C21.2897 13.7737 21.3753 13.2627 21.4132 12.8263C21.437 12.5558 21.437 12.2837 21.4477 12.0116C21.465 11.5962 21.4856 11.1767 21.4708 10.7596C21.4626 10.541 21.437 10.3223 21.4074 10.1053ZM3.94362 4.34188C3.94609 4.28276 3.94938 4.22284 3.93621 4.1621C3.93292 4.14671 3.93045 4.13052 3.92716 4.11513C3.91069 3.86733 3.91893 3.61791 3.9214 3.36849C5.12571 3.4025 6.33085 3.40331 7.53681 3.40898C8.15749 3.41222 8.77816 3.4276 9.39884 3.44299C9.97425 3.45838 10.548 3.49968 11.1234 3.5183C11.7219 3.53855 12.322 3.54745 12.9229 3.5596C13.523 3.57175 14.1247 3.5839 14.7248 3.58876C15.3356 3.59361 15.9472 3.59928 16.5572 3.6009C17.0948 3.60252 17.6331 3.6252 18.1707 3.62844C18.3699 3.62925 18.5683 3.63653 18.7658 3.65111C18.7987 3.93697 18.8201 4.22365 18.8292 4.51194C18.509 4.51842 18.1879 4.51518 17.8694 4.51194C17.2709 4.50384 16.6716 4.48602 16.0732 4.48278C14.8713 4.47631 13.672 4.43663 12.4701 4.42772C11.1917 4.41881 9.91415 4.42934 8.63575 4.3848C7.8134 4.35726 6.98939 4.35888 6.16786 4.3605C5.72828 4.3605 5.28952 4.36212 4.85159 4.35726C4.54866 4.35322 4.24573 4.34917 3.94362 4.34188ZM20.1726 13.0384C20.1726 13.0384 20.1751 13.036 20.1768 13.0344C20.1759 13.036 20.1743 13.0376 20.1726 13.0384ZM20.0129 10.4883C20.0557 10.4916 20.0977 10.4891 20.1381 10.4827C20.1628 10.8382 20.1586 11.1945 20.1521 11.5516C20.1488 11.7776 20.1446 12.0035 20.1397 12.231C20.1372 12.4521 20.1405 12.6732 20.12 12.8927C20.1101 12.9437 20.0986 12.9939 20.0846 13.0441C19.8565 13.0554 19.626 13.0481 19.3988 13.0425C19.1223 13.036 18.8457 13.0336 18.5691 13.0336C17.9558 13.0336 17.3401 13.0352 16.7317 12.9672C16.5465 12.9348 16.3671 12.8886 16.1909 12.8246C16.0139 12.742 15.8518 12.6465 15.6945 12.5347C15.6353 12.4837 15.5785 12.4311 15.5241 12.3752C15.4912 12.325 15.4624 12.274 15.4344 12.2213C15.4056 12.1452 15.3793 12.0683 15.3579 11.9881C15.3447 11.8075 15.3504 11.631 15.3702 11.4512C15.4031 11.2585 15.4435 11.0674 15.511 10.8827C15.5332 10.8398 15.5571 10.7993 15.5826 10.7596C15.6139 10.7289 15.6451 10.6989 15.6781 10.6714C15.7406 10.6333 15.8048 10.5985 15.8715 10.5661C16.0337 10.5086 16.1983 10.4649 16.3695 10.4349C16.6371 10.4082 16.9038 10.4025 17.173 10.396C17.4603 10.3879 17.7484 10.3774 18.0357 10.3774C18.6958 10.3742 19.3569 10.4389 20.0129 10.4883ZM1.63213 3.09882C1.65106 2.9984 1.67411 2.90042 1.70704 2.80405C1.73009 2.7587 1.75561 2.71578 1.78277 2.67367C1.85439 2.59431 1.93094 2.51981 2.01244 2.45016C2.11698 2.37971 2.22564 2.3214 2.34089 2.26714C2.7319 2.12057 3.14267 2.02906 3.55426 1.96752C4.11649 1.9084 4.67625 1.88168 5.24096 1.87763C5.83776 1.87439 6.43539 1.86872 7.0322 1.8671C7.58867 1.8671 8.14514 1.87034 8.70325 1.87358C9.37085 1.87682 10.0401 1.88087 10.7085 1.87682C11.9622 1.86953 13.2159 1.86629 14.4696 1.89058C15.0697 1.90273 15.6682 1.91488 16.2691 1.95375C16.7638 1.98776 17.2594 1.9991 17.755 2.01205C17.7665 2.15539 17.7764 2.29954 17.7928 2.44368C17.7377 2.44368 17.6825 2.44206 17.6274 2.44287C16.4552 2.45016 15.2829 2.46717 14.1099 2.45016C13.4892 2.44287 12.8685 2.42992 12.2495 2.41048C11.6634 2.39348 11.079 2.38862 10.4937 2.36594C9.89522 2.34246 9.29759 2.31816 8.69914 2.31087C8.10069 2.30197 7.50141 2.30278 6.90296 2.29549C5.78672 2.27848 4.67049 2.2388 3.5559 2.19264C3.54849 2.19264 3.54109 2.19183 3.53368 2.19183C3.24556 2.19183 3.01425 2.43154 2.97556 2.70282C2.80187 2.81215 2.67839 2.99354 2.67922 3.20733C2.68086 3.56365 2.68745 3.9224 2.73355 4.27709C2.70885 4.27223 2.68251 4.27304 2.65617 4.26981C2.46519 4.24065 2.27586 4.20907 2.09229 4.14914C2.03302 4.11918 1.97704 4.08598 1.92107 4.04873C1.89143 4.02281 1.86427 3.99609 1.83792 3.96694C1.79347 3.89648 1.75643 3.82441 1.72186 3.74991C1.6807 3.64301 1.64859 3.53612 1.62472 3.42436C1.61731 3.31504 1.62143 3.20814 1.63213 3.09882ZM17.7377 18.218C17.0981 18.2334 16.4576 18.2317 15.818 18.2455C14.4499 18.2714 13.0826 18.3176 11.7128 18.3273C11.0781 18.3305 10.4418 18.3443 9.80714 18.3394C9.13213 18.3362 8.45795 18.3273 7.78458 18.3257C7.14827 18.3241 6.51195 18.3322 5.87563 18.3346C5.19074 18.3362 4.50174 18.3394 3.82014 18.273C3.76581 18.2674 3.71148 18.2625 3.65715 18.2568C3.2859 18.205 2.91218 18.1402 2.5615 18.0123C2.42156 17.9443 2.28656 17.8689 2.15814 17.7823C2.06924 17.7054 1.99104 17.622 1.91613 17.5329C1.85027 17.447 1.78606 17.3588 1.72597 17.2673C1.66094 17.1652 1.6099 17.0527 1.56051 16.9417C1.50371 16.804 1.44938 16.6648 1.39588 16.5247C1.36377 16.4412 1.32426 16.3676 1.27405 16.302C1.26581 15.2589 1.26581 14.2167 1.25182 13.1753C1.24276 12.5971 1.23124 12.0173 1.22383 11.4391C1.21478 10.8455 1.22219 10.2503 1.22054 9.65666C1.22054 8.80717 1.21889 7.95768 1.24112 7.10738C1.25758 6.44657 1.27816 5.78658 1.29627 5.12577C1.33578 5.15007 1.37447 5.17679 1.41399 5.19866C1.74244 5.37682 2.10957 5.42136 2.47507 5.46509C2.78129 5.50234 3.08916 5.51853 3.39868 5.52987C4.01277 5.55173 4.62933 5.54364 5.24507 5.54364C5.89374 5.54364 6.54076 5.53635 7.18942 5.53311C7.82739 5.52825 8.46206 5.5574 9.0992 5.57765C9.7133 5.59627 10.3282 5.59627 10.944 5.59627C11.5819 5.59465 12.2207 5.5898 12.8587 5.59142C13.4843 5.59303 14.1091 5.62948 14.7331 5.66673C15.9053 5.73475 17.0824 5.7388 18.2563 5.75257C18.5337 5.75581 18.8152 5.75257 19.0959 5.74123C19.0786 6.89683 19.0943 8.05324 19.0992 9.20884C18.7148 9.19102 18.3304 9.1643 17.9451 9.16025C17.6496 9.15701 17.3541 9.1481 17.0602 9.14324C17.0306 9.14243 17.0017 9.14243 16.9721 9.14243C16.6445 9.14243 16.321 9.1732 15.9958 9.21531C15.6427 9.26309 15.2829 9.40481 14.98 9.58783C14.7536 9.72469 14.5939 9.9077 14.4342 10.1126C14.3338 10.2413 14.2745 10.4236 14.2186 10.5709C14.1577 10.7297 14.1247 10.8997 14.0918 11.0665C14.007 11.4941 13.9667 11.9274 14.0572 12.3582C14.0794 12.4659 14.1231 12.5704 14.1634 12.6732C14.2638 12.9299 14.3997 13.1421 14.5874 13.347C14.7355 13.5097 14.9347 13.6361 15.1158 13.7608C15.2327 13.841 15.3611 13.9065 15.4912 13.9657C15.6756 14.0475 15.8666 14.1333 16.065 14.1811C16.4165 14.2669 16.7836 14.2953 17.145 14.3147C17.55 14.3366 17.9575 14.3333 18.3658 14.3301C18.5378 14.3285 18.7115 14.3268 18.8844 14.3268C18.9568 14.3268 19.0284 14.3276 19.1009 14.3285C19.0918 15.6177 19.1338 16.9061 19.1445 18.1945C18.6761 18.1993 18.2069 18.2074 17.7377 18.218ZM17.4677 11.6545C17.4677 12.0035 17.1721 12.295 16.8165 12.295C16.4617 12.295 16.1654 12.0043 16.1654 11.6545C16.1654 11.3054 16.4609 11.0139 16.8165 11.0139C17.1713 11.0139 17.4677 11.3054 17.4677 11.6545Z" fill="white"/>
</svg>
